<svg xmlns="http://www.w3.org/2000/svg" id="Layer_1" data-name="Layer 1" viewBox="0 0 154 34"><defs><style>.st1{fill:#937737;}.st4{fill:#162b46;}</style></defs><title>Artboard 14</title><path class="st1" d="M3.1,27.3l-.3.1.2.2c0,.1.1.1.1.2l.1.1.3-.1L31.8,15.3h.1v-.5Z"></path><path class="st1" d="M5.7,29.7l-1.1-.2.4.3.3.3h0l1.2.2,14.9,2.3h0l.6.1h0c.1,0,.2-.1.3-.2l.5-.2-.5-.1Z"></path><path class="st1" d="M1,23.7,3.6,6l.1-.5-.3.4-.3.3h0L3,6.8.8,22.2v.6h0l-.1.6h0c0,.1.1.2.1.4l.2.5Z"></path><path class="st1" d="M4.9,28.9H4l.3.3.2.2h.9l19.9.6h.9l.2-.2.3-.3h-.9Z"></path><path class="st1" d="M7.9,2.8,8.1,2l-.3.1c-.1,0-.2.1-.3.1h0l-.1.6L1.2,24v.1l-.1.4v.1c0,.1.1.2.1.3l.2.3.2-.5Z"></path><path class="st1" d="M14.1.7,1.7,25h0l-.2.4v.1c0,.1.1.1.1.2l.2.3.3-.6L14.8.6l.1-.2L15,0h-.6Z"></path><path class="st1" d="M21,1.5,2.2,25.8l-.1.1-.2.3H2l.1.1.1.2.2-.2.1-.1.1-.2L21.5,1.7l.4-.5-.2-.1c-.1,0-.1-.1-.2-.1h-.1Z"></path><path class="st1" d="M26.4,4.7,2.7,26.2l-.1.1-.1.1-.2.2.1.2.1.1V27l.1.1c0,.1.1.1.1.2l.1.1.3-.2L30,9.2l.1-.1L30,9V8.9l-.1-.2L3,26.7l-.2.1-.1.1-.1.1.2-.2L27,4.9l.2-.2-.1-.1L27,4.5l-.1-.1Z"></path><path class="st1" d="M.7,11.9.8,10l-.3.8c-.1.2-.1.4-.2.6h0v1.5L0,20.4H0c.1.3.1.5.2.8l.3,1Z"></path><path class="st1" d="M14.9,33.4,6.7,30.9l-.8-.3.8.6c.2.1.4.3.6.4l1.4.4h0l5.1,1.6,1.4.4h1.7Z"></path><path class="st1" d="M3.5,28.3h0l.2.2.2.2v.1h.4l25.2-2.9h.4v-.1c0-.1.1-.1.1-.2l.1-.3-.6.1L4.3,28.3h0l27-6.6h0l.4-.1v-.1c0-.1,0-.1.1-.2l.1-.2-.7.2L3.9,27.8l-.7.2Z"></path><path class="st4" d="M60.7,29.3V24.7l3,3.3V25h.6v4.5l-3-3.3v3Z"></path><path class="st4" d="M65.1,27.9a1.37,1.37,0,1,1,.4,1A1.16,1.16,0,0,1,65.1,27.9Zm.6,0a.87.87,0,0,0,.2.6c.1.2.3.2.6.2a1.42,1.42,0,0,0,.6-.2,1.42,1.42,0,0,0,.2-.6.87.87,0,0,0-.2-.6c-.1-.2-.3-.2-.6-.2a1.42,1.42,0,0,0-.6.2A1.42,1.42,0,0,0,65.7,27.9Z"></path><path class="st4" d="M68.8,26.6l.7,1.5.7-1.5h.7l-1.4,2.9-1.3-2.9Z"></path><path class="st4" d="M73.5,28.1H71.6a.67.67,0,0,0,.64.7h0a.63.63,0,0,0,.4-.1,1.31,1.31,0,0,0,.3-.4l.5.3c-.1.1-.2.3-.3.4s-.2.2-.3.2-.2.1-.3.1h-.4a1,1,0,0,1-.9-.4,1.84,1.84,0,0,1-.4-1,1.5,1.5,0,0,1,.3-1,1.21,1.21,0,0,1,1.71-.09h0l.09.09a1.68,1.68,0,0,1,.3,1v.2Zm-.6-.5a.63.63,0,0,0-.6-.5h-.2c-.1,0-.1.1-.2.1s-.1.1-.1.2-.1.1-.1.2Z"></path><path class="st4" d="M74.8,24.6v4.7h-.6V24.6Z"></path><path class="st4" d="M77.2,29.3l.9-4.6L79.5,28,81,24.7l.8,4.6h-.6l-.4-2.6-1.2,2.8-1.2-2.8L78,29.3Z"></path><path class="st4" d="M84.9,28.1H83a.67.67,0,0,0,.64.7h0a.63.63,0,0,0,.4-.1,1.31,1.31,0,0,0,.3-.4l.5.3c-.1.1-.2.3-.3.4s-.2.2-.3.2a.37.37,0,0,1-.3.1h-.4a1,1,0,0,1-.9-.4,1.84,1.84,0,0,1-.4-1,1.5,1.5,0,0,1,.3-1,1.21,1.21,0,0,1,1.71-.09h0l.09.09a1.68,1.68,0,0,1,.3,1v.2Zm-.7-.5a.63.63,0,0,0-.6-.5h-.2c-.1,0-.1.1-.2.1s-.1.1-.1.2-.1.1-.1.2Z"></path><path class="st4" d="M87.5,24.6h.6v4.7h-.6V29a1.23,1.23,0,0,1-.8.4,1,1,0,0,1-.9-.4,1.84,1.84,0,0,1-.4-1,1.29,1.29,0,0,1,.4-1,1,1,0,0,1,.9-.4.91.91,0,0,1,.8.4ZM86,27.9a.87.87,0,0,0,.2.6c.1.2.3.2.5.2a.7.7,0,0,0,.5-.2,1.42,1.42,0,0,0,.2-.6,1,1,0,0,0-.2-.6c-.1-.2-.3-.2-.5-.2a.7.7,0,0,0-.5.2A1.42,1.42,0,0,0,86,27.9Z"></path><path class="st4" d="M88.7,25.5a.35.35,0,0,1,.4-.29.34.34,0,0,1,.29.38h0a.34.34,0,0,1-.37.31.39.39,0,0,1-.22-.11C88.8,25.7,88.7,25.6,88.7,25.5Zm.7,1.1v2.7h-.6V26.6Z"></path><path class="st4" d="M90.8,27.2v2.1h-.6V27.2H90v-.6h.3v-1h.6v1h.5v.6Z"></path><path class="st4" d="M94.1,28.1H92.2a.67.67,0,0,0,.64.7h0a.63.63,0,0,0,.4-.1,1.31,1.31,0,0,0,.3-.4l.5.3c-.1.1-.2.3-.3.4s-.2.2-.3.2a.37.37,0,0,1-.3.1h-.4a1,1,0,0,1-.9-.4,1.84,1.84,0,0,1-.4-1,1.5,1.5,0,0,1,.3-1,1.21,1.21,0,0,1,1.71-.09h0l.09.09a1.68,1.68,0,0,1,.3,1Zm-.6-.5a.63.63,0,0,0-.6-.5h-.2c-.1,0-.1.1-.2.1s-.1.1-.1.2-.1.1-.1.2Z"></path><path class="st4" d="M94.8,26.6h.6v.2c.1-.1.2-.2.3-.2s.2-.1.3-.1a1.69,1.69,0,0,1,.5.2l-.3.6a.37.37,0,0,0-.3-.1c-.3,0-.5.3-.5.8v1.4h-.6Z"></path><path class="st4" d="M96.9,26.6h.6v.2c.1-.1.2-.2.3-.2s.2-.1.3-.1a1.69,1.69,0,0,1,.5.2l-.3.6a.37.37,0,0,0-.3-.1c-.3,0-.5.3-.5.8v1.4h-.6Z"></path><path class="st4" d="M100.9,26.6h.6v2.7h-.6V29c-.3.2-.5.4-.8.4a1,1,0,0,1-.9-.4,1.84,1.84,0,0,1-.4-1,1.29,1.29,0,0,1,.4-1,1,1,0,0,1,.9-.4.91.91,0,0,1,.8.4Zm-1.5,1.3a.87.87,0,0,0,.2.6c.1.2.3.2.5.2a.7.7,0,0,0,.5-.2,1.42,1.42,0,0,0,.2-.6,1,1,0,0,0-.2-.6c-.1-.2-.3-.2-.5-.2a.7.7,0,0,0-.5.2A1.42,1.42,0,0,0,99.4,27.9Z"></path><path class="st4" d="M102.2,26.6h.6v.2a1,1,0,0,1,1.4,0,1.49,1.49,0,0,1,.2.8v1.7h-.6V27.8c0-.3,0-.5-.1-.6a.5.5,0,0,0-.7-.1.47.47,0,0,0-.1.1c-.1.1-.1.4-.1.7v1.3h-.6Z"></path><path class="st4" d="M107.6,28.1h-1.9a.67.67,0,0,0,.64.7h0c.2,0,.3,0,.4-.1a1.31,1.31,0,0,0,.3-.4l.5.3c-.1.1-.2.3-.3.4s-.2.2-.3.2a.37.37,0,0,1-.3.1h-.4a1,1,0,0,1-.9-.4,1.84,1.84,0,0,1-.4-1,1.5,1.5,0,0,1,.3-1,1.21,1.21,0,0,1,1.71-.09h0l.09.09a1.68,1.68,0,0,1,.3,1v.2Zm-.6-.5a.63.63,0,0,0-.6-.5h-.2c-.1,0-.1.1-.2.1s-.1.1-.1.2-.1.1-.1.2Z"></path><path class="st4" d="M110.2,26.6h.6v2.7h-.6V29a1.23,1.23,0,0,1-.8.4,1,1,0,0,1-.9-.4,1.84,1.84,0,0,1-.4-1,1.29,1.29,0,0,1,.4-1,1,1,0,0,1,.9-.4.91.91,0,0,1,.8.4Zm-1.4,1.3a.87.87,0,0,0,.2.6c.1.2.3.2.5.2a.7.7,0,0,0,.5-.2,1.42,1.42,0,0,0,.2-.6,1,1,0,0,0-.2-.6c-.1-.2-.3-.2-.5-.2a.7.7,0,0,0-.5.2A1.42,1.42,0,0,0,108.8,27.9Z"></path><path class="st4" d="M111.6,26.6h.6v.2a1,1,0,0,1,1.4,0,1.49,1.49,0,0,1,.2.8v1.7h-.6V27.8c0-.3,0-.5-.1-.6a.5.5,0,0,0-.7-.1.47.47,0,0,0-.1.1c-.1.1-.1.4-.1.7v1.3h-.6Z"></path><path class="st4" d="M119.5,25.3V26a1.83,1.83,0,0,0-1.1-.5,1.55,1.55,0,0,0-1.51,1.59h0v.11a1.37,1.37,0,0,0,.4,1.1,1.63,1.63,0,0,0,1.1.5,1.23,1.23,0,0,0,.6-.1c.1,0,.2-.1.3-.1s.2-.1.3-.2v.8a2.35,2.35,0,0,1-1.1.3,2,2,0,0,1-1.5-.6,2.11,2.11,0,0,1-.6-1.6,3,3,0,0,1,.5-1.5,2.15,2.15,0,0,1,1.7-.8C118.8,24.9,119.1,25,119.5,25.3Z"></path><path class="st4" d="M120.7,26.6v1.5c0,.4.2.7.5.7s.5-.2.5-.7V26.6h.6v1.6a1.23,1.23,0,0,1-.1.6.56.56,0,0,1-.3.4,1.22,1.22,0,0,1-1.6,0,1.31,1.31,0,0,1-.3-.4,4.17,4.17,0,0,1-.1-.6V26.6Z"></path><path class="st4" d="M123,25.5a.35.35,0,0,1,.4-.29.34.34,0,0,1,.29.38h0a.34.34,0,0,1-.37.31.39.39,0,0,1-.22-.11C123.1,25.7,123,25.6,123,25.5Zm.7,1.1v2.7h-.6V26.6Z"></path><path class="st4" d="M126,27.1l-.5.3c-.1-.2-.2-.2-.3-.2s-.1,0-.1.1l-.1.1q0,.15.3.3a1.44,1.44,0,0,1,.6.4.7.7,0,0,1,.2.5.89.89,0,0,1-.3.7.85.85,0,0,1-.7.2.94.94,0,0,1-.9-.7l.5-.2c.1.1.1.2.2.2a.37.37,0,0,0,.3.1.27.27,0,0,0,.3-.24h0V28.6c0-.1-.1-.2-.2-.3s-.1-.1-.2-.1-.1-.1-.2-.1a1.31,1.31,0,0,1-.4-.3.63.63,0,0,1-.1-.4,1.42,1.42,0,0,1,.2-.6.74.74,0,0,1,.6-.2C125.6,26.5,125.8,26.7,126,27.1Z"></path><path class="st4" d="M126.6,25.5a.35.35,0,0,1,.4-.29.34.34,0,0,1,.29.38h0a.34.34,0,0,1-.37.31.39.39,0,0,1-.22-.11C126.7,25.7,126.6,25.6,126.6,25.5Zm.7,1.1v2.7h-.6V26.6Z"></path><path class="st4" d="M128.1,26.6h.6v.2a1,1,0,0,1,1.4,0,1.49,1.49,0,0,1,.2.8v1.7h-.6V27.8c0-.3,0-.5-.1-.6a.5.5,0,0,0-.7-.1l-.1.1c-.1.1-.1.4-.1.7v1.3h-.6V26.6Z"></path><path class="st4" d="M133.5,28.1h-1.9a.67.67,0,0,0,.64.7h0a.63.63,0,0,0,.4-.1,1.31,1.31,0,0,0,.3-.4l.5.3c-.1.1-.2.3-.3.4s-.2.2-.3.2a.37.37,0,0,1-.3.1h-.4a1,1,0,0,1-.9-.4,1.84,1.84,0,0,1-.4-1,1.5,1.5,0,0,1,.3-1,1.21,1.21,0,0,1,1.71-.09h0l.09.09a1.68,1.68,0,0,1,.3,1l.2.2Zm-.6-.5a.63.63,0,0,0-.6-.5h-.2c-.1,0-.1.1-.2.1s-.1.1-.1.2-.1.1-.1.2Z"></path><path class="st4" d="M104.1,6.8a.37.37,0,0,1,.1-.3A.37.37,0,0,1,104.1,6.8Z"></path><path class="st4" d="M153.8,16.3h0c-.1.1-.2.2-.2.3v.1h0v.1c-.1.2-.1.3-.3.4h0a.09.09,0,0,1-.08.1h0v.1c-.1.1-.1.2-.2.3s-.2.3-.3.4l-.4.4a.86.86,0,0,1-.7.1c-.1-.1-.2-.2-.2-.3a1.68,1.68,0,0,1-.3-1,6.06,6.06,0,0,1,.2-1.4,6.52,6.52,0,0,1,.4-1.3,4.86,4.86,0,0,0,.2-1.2c0-.2.2-.4.2-.7v-.3c0-.1-.1-.2-.2-.1a.24.24,0,0,1-.35,0,.22.22,0,0,1-.05-.08l-.1-.1h-.1a.09.09,0,0,1-.1-.08v0h0c-.1-.1-.2-.2-.4-.1s-.3,0-.4.1h0l-.3.3a7.38,7.38,0,0,0-1.4,1.7c-.1.2-.3.4-.4.6a2.29,2.29,0,0,1-.3.5.6.6,0,0,0-.3.5c-.1.3-.1.5-.2.8a1.12,1.12,0,0,0-.1.8c.1.2.2.3.2.4s.1.2.2.3a.84.84,0,0,0,.5.3c.2,0,.3-.1.5-.2s.4-.1.6-.3l.4-.4c.1-.1.3-.2.4-.4h0l.1-.1c.1,0,.1.1.1.2a2.6,2.6,0,0,0,.2,1.2v.1c.1.1.2.3.3.4a.71.71,0,0,0,.6.3h.1c.3.2.5.1.8.1a1.47,1.47,0,0,0,.7-.3,2.62,2.62,0,0,0,.5-.6v-.1h0V18h0a.09.09,0,0,1,.08-.1h0v-.1a.37.37,0,0,0,.1-.3c0-.1.2-.2.2-.3v-.4C154,16.9,154,16,153.8,16.3Zm-3.1-2.9c0,.1,0,.1-.1.2s-.1.3-.2.5,0,.1-.1.2c-.1.3-.2.5-.3.8a.37.37,0,0,1-.1.3v.1c0,.2-.2.4-.3.6a2.44,2.44,0,0,1-.4.7c-.1.1-.2.1-.3.2a1.9,1.9,0,0,1-.8.3c-.2,0-.3,0-.3-.2a.37.37,0,0,1,.1-.3c0-.1.1-.2.1-.3s.1-.2.1-.3a.37.37,0,0,0,.1-.3.09.09,0,0,1,.08-.1h0a4.4,4.4,0,0,1,.5-.9l.1-.1a2.47,2.47,0,0,1,.8-.9l.3-.3a.09.09,0,0,1,.08-.1h0c.1,0,.1-.1.2-.1s.1-.1.2-.1a.35.35,0,0,1,.2.1Z"></path><path class="st4" d="M150.5,13.4h0C150.4,13.3,150.4,13.4,150.5,13.4Z"></path><path class="st4" d="M135.4,17.6h0C135.3,17.7,135.3,17.6,135.4,17.6Z"></path><path class="st4" d="M146.1,11.2l-.2-.2h0a.09.09,0,0,1-.1-.08v0h0a.37.37,0,0,0-.3-.1h-.1c-.3-.2-.6-.1-.9-.2a5.6,5.6,0,0,1-.7-.2c-.2-.1-.2,0-.3,0a.63.63,0,0,1-.4.1c-.1,0-.1.1-.2.2a1.1,1.1,0,0,0,0,.8,1.09,1.09,0,0,0,.1.5l.3.9c.1.2.2.5.3.7s0,.1.1.2a.37.37,0,0,1,.1.3h0c0,.1,0,.1.1.2h0a.37.37,0,0,1,.1.3h0v.2h0c.2.2.2.6.3.8s0,.5,0,.8a3.09,3.09,0,0,1-.2.9c-.2.3-.1.6-.3.8h0c0,.2-.1.3-.2.3l-.1.1h0v.1c-.2,0-.3.2-.5.3a.19.19,0,0,1-.27,0h0c-.1-.1-.3-.1-.4-.2h0a1,1,0,0,1-.4-.5h0a2.29,2.29,0,0,0-.3-.5c-.1-.1-.1-.2,0-.2a.3.3,0,0,0,.1-.2c0-.1.1-.2.2-.3s.2-.3.3-.4.1-.3-.1-.3-.3-.1-.4.1a.37.37,0,0,1-.3.1c-.1,0-.1.1-.2.1h0c0,.1-.1.1-.2.2h0a.09.09,0,0,1-.08.1h0c-.2-.1-.2.1-.3.2h0c-.1.1-.2.2-.3.2h-.1c-.2.2-.4.2-.6.3a.64.64,0,0,1-.6,0h-.1a.09.09,0,0,1-.1-.08v0h0l-.1-.1a.09.09,0,0,0-.08-.1h0a1.9,1.9,0,0,1-.2-1.3,1.23,1.23,0,0,1,.1-.6c0-.1.1-.2.1-.3h0c0-.1.1-.1.1-.2h0a.59.59,0,0,0-.1-.7v-.1a2.72,2.72,0,0,1,0-.9c0-.2-.1-.4-.3-.4h-.5a.22.22,0,0,0-.2.2c0,.1,0,.1-.1.2a6.56,6.56,0,0,0-.1,1.4V16c0,.1,0,.2-.1.2s-.2.1-.1.2v.1a.09.09,0,0,1-.1-.08v0h0c-.1-.1-.1-.1-.2,0l-.1.1h0c-.1.2-.3.3-.4.4h0a1.84,1.84,0,0,1-.7.5h0l-.1.1-.1.1h-.1c-.1,0-.1.1-.2.1h-.1a.3.3,0,0,0-.2.1c-.1,0-.1.1-.2.1s-.1.1-.2.1h0c-.1,0-.1.1-.2.1h0l-.2-.2h0a.63.63,0,0,1-.1-.4,5.66,5.66,0,0,1-.1-1.3c0-.1,0-.1.1-.2s.1-.1,0-.2-.1-.1.1-.2v-.4c0-.1,0-.2.1-.2s.1-.2,0-.2-.1-.1-.1-.2.1,0,.2,0h.1c0-.1,0-.2-.2-.2a.21.21,0,0,1-.1-.4s.1-.1,0-.1a.74.74,0,0,1-.1-.5c0-.2.1-.4.1-.6v-.2a.19.19,0,0,1,0-.27h0c0-.2.1-.3.1-.5a7.35,7.35,0,0,1,.4-1.6v-.1c.1-.2.1-.3.2-.5a.22.22,0,0,1,.2-.2c.1,0,.1.1.2.1s.1.2,0,.2,0,.3.1.4a.19.19,0,0,1,0,.27h0c-.1.2-.2.4,0,.6v.1a.19.19,0,0,0,0,.27h0v.1a1.42,1.42,0,0,0-.2.6h0v.1c0,.1,0,.1-.1.1s-.1.1,0,.2.1,0,.1-.1.1-.1.1,0a.09.09,0,0,1,.1.08v0h0c0,.1,0,.1.1.1h0a.63.63,0,0,1,.1-.4c.1-.1.2-.3.1-.4v-.1c.2,0,.2-.1.2-.2v-.2c0-.1,0-.1.1-.2a.87.87,0,0,0,.1-.5v-.1c0-.1,0-.1.1-.2a.58.58,0,0,0,.1-.4V9.5c0-.1,0-.1.1-.2a.3.3,0,0,0,0-.4V8.8a.52.52,0,0,0-.2-.4V8.3c0-.2-.2-.3-.2-.5s-.1-.1-.2-.1-.2,0-.2-.1c-.2-.1-.4-.1-.6-.2s-.3,0-.4.2a.75.75,0,0,1-.2.3,3.5,3.5,0,0,0-.3,1v.2a1.23,1.23,0,0,1-.1.6c0,.1-.1.2-.1.3a3.09,3.09,0,0,1-.2.9v.4a1.09,1.09,0,0,0-.1.5,2.74,2.74,0,0,0-.1.9c0,.1,0,.1.1.1s.1.1,0,.1-.1.1-.1,0-.1,0-.1.1c0,.5-.1,1-.1,1.6a.87.87,0,0,0,.1.5v.1a14.72,14.72,0,0,0,0,2.1v.4a1.9,1.9,0,0,0,.3.8c.1.2.3.2.5.3a.52.52,0,0,0,.4.2,1.1,1.1,0,0,0,.8,0c.2-.1.5-.2.7-.3a2.3,2.3,0,0,0,.8-.5.09.09,0,0,1,.08-.1h0l.1-.1c0-.2.1-.2.2-.4h0a.22.22,0,0,1,.2-.2h0v-.1a.37.37,0,0,0,.1-.3v-.1c0-.1.1-.1.1-.2s.1-.1.1,0v.1h0v.4a.37.37,0,0,1,.1.3c0,.1.1.2.1.3s.1.1.1.2.1.2.2.3.3.2.4.3h.1c.1,0,.2,0,.2.1s.2,0,.3,0a.37.37,0,0,1,.3-.1c.2,0,.3-.1.5-.1s.2-.1.3-.1.1,0,.2-.1.1-.1.1,0a.09.09,0,0,1,.1.08v0h0c0,.1,0,.2.1.2a.09.09,0,0,1,.1.08v0h0l.2.2h0c.1.1.2.2.3.2s.1.1.2.1h0c.1,0,.1.1.2.1h0c.1.1.2.1.3.2s.1.1.2.1l.1.1h.1c.1.1.2.1.3.2a.09.09,0,0,1,.1.08v0h0a.35.35,0,0,1,.2.1.83.83,0,0,0,.7.1h.2c.1,0,.1,0,.2-.1a5,5,0,0,0,.6-.7l.1-.1v-.1a.09.09,0,0,1,.08-.1h0c.1-.1.1-.2.1-.4s0-.1.1-.2h0a.37.37,0,0,0,.1-.3.52.52,0,0,1,.2-.4h0v-.2h0v-.9a3.18,3.18,0,0,0-.3-.9h0v-.1c-.1-.2-.2-.3-.2-.5h0c0-.1,0-.1-.1-.2a.09.09,0,0,0-.08-.1h0c0-.1-.1-.3-.1-.4a.09.09,0,0,0-.08-.1h0a.09.09,0,0,0-.08-.1h0v-.1a.09.09,0,0,0-.08-.1h0c-.1-.1-.1-.2-.1-.4h0v-.1c0-.1-.1-.1-.1-.2a.52.52,0,0,0-.2-.4v-.2h0v-.1h0v-.1a.09.09,0,0,0-.08-.1h0v-.4h0a.35.35,0,0,1,.1-.2h0c.1-.1.2-.2.3-.2a.46.46,0,0,1,.6.1l.9.6h.1l.1-.1h0c.3-.8.2-.9.1-1.1Z"></path><path class="st4" d="M82.4,17.1a2.62,2.62,0,0,0,.6-.5h0A3.19,3.19,0,0,0,82.4,17.1Z"></path><path class="st4" d="M82.5,18.1l-.4.4h0C82.2,18.4,82.3,18.2,82.5,18.1Z"></path><path class="st4" d="M83.2,16.4a.19.19,0,0,1,.27,0h0Q83.35,16.1,83.2,16.4Z"></path><path class="st4" d="M83.1,16.4l-.1.1a.09.09,0,0,0,.1-.08Z"></path><path class="st4" d="M83.5,16.4h0a.19.19,0,0,0-.27,0h-.1a.09.09,0,0,1-.08.1h0v.1a2.62,2.62,0,0,1-.6.5h-.1a.09.09,0,0,1-.08.1h0a.3.3,0,0,0-.2.1c-.2.2-.4.2-.6.3a4.34,4.34,0,0,1-.7.3,2.41,2.41,0,0,1-.8.2.61.61,0,0,1-.6-.3l-.6-.9c-.1-.1,0-.2.1-.3a1.76,1.76,0,0,0,.5-.4,1.31,1.31,0,0,1,.4-.3,1.21,1.21,0,0,0,.5-.5.09.09,0,0,1,.08-.1h0a1.31,1.31,0,0,0,.3-.4h0c0-.1.1-.1.1-.2h0c0-.1.1-.1.2-.2a1.31,1.31,0,0,0,.3-.4c.1-.2.3-.3.4-.5v-.1a3.07,3.07,0,0,1-.1-1,.37.37,0,0,0-.1-.3c-.1-.1-.1-.1-.1-.2a.87.87,0,0,0-.5.1h-.1a.37.37,0,0,0-.3-.1h-.1c-.2-.1-.4,0-.7,0-.1,0-.1,0-.2.1s-.2.3-.3.4h0c0,.1-.1.2-.2.3a2.29,2.29,0,0,0-.3.5h0l-.3.6c-.1.2-.2.3-.2.5a.37.37,0,0,1-.1.3.63.63,0,0,1-.1.4.63.63,0,0,1-.1.4.87.87,0,0,0-.1.5,4,4,0,0,0,.1.5,1.62,1.62,0,0,0,.3.9,6,6,0,0,0,.4.7,1.85,1.85,0,0,0,.8.9v.1h0a.63.63,0,0,0,.4.1H80a.63.63,0,0,0,.4-.1c.1,0,.2-.1.3-.1h.2c.1,0,.2-.1.4-.1a4.38,4.38,0,0,0,.7-.4h0c.1-.2.3-.3.4-.4h0a4.84,4.84,0,0,1,.7-.8c.1-.1.1-.2.2-.2A1,1,0,0,0,83.5,16.4Zm-4.9-1h0l-.1.1s-.1.1-.1,0-.1-.1,0-.1a5.6,5.6,0,0,0,.2-.7c.1-.2.2-.5.3-.7s.1-.1.1-.2.2-.3.3-.5.3-.4.4-.6a1.31,1.31,0,0,1,.3-.4.3.3,0,0,1,.4,0c.1,0,.1.1.1.2v.3a1.23,1.23,0,0,1-.1.6c-.1.1-.2.3-.3.4s-.1.2-.2.2h0v.1a.22.22,0,0,1-.2.2l-.2.2a1.31,1.31,0,0,1-.4.3c-.2.1-.2.3-.3.4s-.1.2-.2.2Z"></path><path class="st4" d="M78.3,13.9c.1-.2.3-.4.3-.6Z"></path><path class="st4" d="M132.6,16.3l.1-.1a.09.09,0,0,1,.1.08v0h0V17a.37.37,0,0,1-.1.3c-.1.2-.1.4-.3.6,0,.1-.1.1-.1.2s-.1.1,0,.1.1-.2.2-.4a1.62,1.62,0,0,0,.3-.9v-.7c0-.1,0-.1-.1-.1s-.1.1-.1.2a.22.22,0,0,0-.2.2h0c.1,0,.1-.1.2-.2Z"></path><path class="st4" d="M139.4,10.6v-.1a.76.76,0,0,1-.2-.4c0-.1-.1-.2-.1-.3h0a.35.35,0,0,0-.1-.2V9.5c-.1-.1-.1-.2-.2-.2a.82.82,0,0,0-.7-.3c-.2,0-.2.1-.2.3a6,6,0,0,0,.3.8c0,.1,0,.2.2.2a.09.09,0,0,1,.1.08v0h0a.09.09,0,0,0,.08.1h0c.2,0,.3.2.4.3h0c.1.1.1.1.3.1a.45.45,0,0,0,.1-.3Z"></path><path class="st4" d="M61,18.2c-.2-.2-.4-.3-.5-.5s-.1-.1-.2,0l-.2.2c-.1.1-.2.1-.2.2h0l.4-.4c0-.1.1-.1.1,0A1.46,1.46,0,0,0,61,18.2Z"></path><path class="st4" d="M76.7,11a.76.76,0,0,0-.4-.2h-.1c-.2-.1-.4-.1-.6-.2a1.32,1.32,0,0,1-.7-.2h0a.09.09,0,0,1-.1-.08v0c-.1-.1-.2-.1-.4,0a.37.37,0,0,1-.3.1.22.22,0,0,0-.2.2,1.4,1.4,0,0,0,0,1.1,2.44,2.44,0,0,0,.2.7c.1.3.2.5.3.8a.35.35,0,0,0,.1.2v.2c0,.1.1.3.1.4a1.9,1.9,0,0,1,.3.8c0,.1.1.2.1.3h0a2.78,2.78,0,0,1,.1,1.8.37.37,0,0,1-.1.3.87.87,0,0,1-.1.5c0,.1,0,.1-.1.2s0,.2-.1.2-.1.2-.1.4-.1.1-.2.2h0v.1h-.1c-.2,0-.3.2-.4.3a.19.19,0,0,1-.27,0h0c-.1,0-.2-.1-.3-.1h-.1l-.3-.3-.6-.9v-.2c.1-.1.1-.1.1-.2a.09.09,0,0,1,.08-.1h0l.3-.3h0c0-.2.1-.3.1-.5v-.2a.09.09,0,0,0-.08-.1h0c-.1,0-.1,0-.2.1s-.1.2-.3.3h-.2c-.1,0-.1.1-.2.1h0l-.2.2h0V17c0,.1-.1.1-.2.1h-.1c0,.2-.2.3-.3.5s-.1.1-.1.2a.22.22,0,0,1-.2.2.63.63,0,0,0-.4.1l-.1.1a4.34,4.34,0,0,1-.7.3h-.1a.65.65,0,0,1-.6.1c-.2,0-.5-.3-.6-.5a2.66,2.66,0,0,1-.2-1.5c0-.3-.1-.5-.1-.8V14.5a1.66,1.66,0,0,1,.1-.7v-.5c0-.2-.1-.4-.1-.6a.22.22,0,0,0-.2-.2h-.1a.37.37,0,0,0-.3-.1c-.2,0-.3.1-.5.1a.56.56,0,0,0-.5.3,1.31,1.31,0,0,1-.4.3c-.4.3-.7.6-1.1.9h0l-.1.1-.5.5c-.2.2-.4.3-.5.5a1.21,1.21,0,0,1-.5.5c-.2.1-.3.3-.5.5v.1c-.1.1-.1.1-.2.1s-.1,0-.1-.1a2.08,2.08,0,0,1,.1-.7c0-.2.1-.3.1-.5s0-.1.1-.2h0v-.2h0c0-.1,0-.2.1-.2v-.1h0l.1-.1a.09.09,0,0,1,.08-.1h0c.1-.1.2-.2.2-.3a.22.22,0,0,0-.2-.2c-.1,0-.1,0-.2-.1a.37.37,0,0,0-.3-.1c-.1,0-.2,0-.2-.1a.43.43,0,0,0-.5-.1h-.1c-.1,0-.2,0-.2.1h0c0,.2-.1.2-.2.4s0,.2-.1.2l-.3.9c-.1.3-.1.6-.2.9,0,.1,0,.1-.1.2a.37.37,0,0,0-.1.3.52.52,0,0,1-.2.4h0a.78.78,0,0,1-.4.4l-.1.1h0c0,.1-.1.1-.2.1s-.1.1-.1.2a.76.76,0,0,1-.4.2,1.52,1.52,0,0,1-.9.4c-.5.1-.7-.1-1-.5s-.1-.6-.2-.9h0v-.2h0v-.9a2.18,2.18,0,0,1,.1-.8.63.63,0,0,1,.1-.4c0-.2.2-.5.2-.7s.1-.1.2-.2v-.3c0-.2,0-.2-.2-.2s-.1,0-.2-.1-.4-.1-.6-.2-.2,0-.2.1h0v.1c-.1.2-.2.5-.3.7a4,4,0,0,0-.2.9,1.42,1.42,0,0,0-.2.6,2.29,2.29,0,0,0-.3.5c-.1.1-.1.3-.2.4h0a1.15,1.15,0,0,1-.5.7h0l-.5.5q-.15.3-.3.3a.3.3,0,0,1-.5-.2v-1a3.53,3.53,0,0,0,.3-1.1l.3-.6.1-.1a.3.3,0,0,0,0-.4c0-.1-.1-.1-.2-.1a.63.63,0,0,1-.4-.1c-.2-.1-.3-.1-.4.1a4.66,4.66,0,0,0-.7,1.2v.2a3.18,3.18,0,0,0-.2,1.4v.2a.76.76,0,0,0,.2.4v.2c0,.1.1.1.1.2l.1.1a1,1,0,0,0,.5.4.52.52,0,0,0,.4.2c.1,0,.3.1.4,0h.1l.1-.1h.1l.2-.2c.1-.1.2-.3.4-.4s.4-.5.6-.7.1,0,.2,0v.1c0,.1.1.3.1.4h0c.1.2.2.5.3.7s.1.3.3.4a.78.78,0,0,1,.4.4v.1H57c.2.2.4.2.6.3v.1h.1a2.06,2.06,0,0,0,1.1-.1l.1-.1h0l.3-.3c.1,0,.1-.1.2-.1a.09.09,0,0,1,.08-.1h0a1.31,1.31,0,0,1,.4-.3h0c0-.1.1-.2.2-.3l.2-.2c.1-.1.1-.1.2,0l.5.5h0c.1,0,.2.1.3.2s.2.1.4,0,.1,0,.2.1a.43.43,0,0,0,.5.1.09.09,0,0,1,.08-.1h.12l.1-.1h0v-.1h0c.1-.1.1-.2.2-.3h0a.09.09,0,0,1,.08-.1h0c.1-.2.3-.3.3-.6v-.1c0-.2.2-.3.2-.5l.3-.6h0v-.2c0-.1,0-.1.1-.2a8.55,8.55,0,0,1,.7-1,2.62,2.62,0,0,1,.5-.6l.2-.2.1-.1.2-.2h0c.4-.4.8-.7,1.2-1.1a.35.35,0,0,0,.2-.1.37.37,0,0,1,.3-.1c.1,0,.1.1.1.2h0a.63.63,0,0,1,.1.4,7.52,7.52,0,0,1-.2,1.5,1.23,1.23,0,0,0-.1.6,2.44,2.44,0,0,1-.2.7v.5a3.8,3.8,0,0,0,.1,1.5.7.7,0,0,0,.2.5.09.09,0,0,0,.08.1h0l.1.1c.1.1.1.2.2.2l.1.1a.35.35,0,0,0,.2.1c.1,0,.1.1.2.1h0c.1,0,.1.1.2.1a3.36,3.36,0,0,1,.6.3h0c.1.1.1.1.2,0s.1-.1.2,0,.1.1.2,0a.37.37,0,0,1,.3-.1h0l.1-.1v-.1a2.17,2.17,0,0,1,.6-.4h0a.09.09,0,0,1,.08-.1h0l.3-.3.1-.1a.09.09,0,0,1,.1.08v.12h0c.1.1.3.2.3.3h0l.1.1a9.65,9.65,0,0,0,1.3.8h0c.1.1.3.1.4.2a.37.37,0,0,0,.3.1h.2c.1.1.2-.1.4,0s.2-.2.4-.3l.3-.3.1-.1h0c.1-.1.2-.3.3-.4s.1-.1.1-.2,0-.4.2-.5a.35.35,0,0,0,.1-.2.7.7,0,0,1,.2-.5.13.13,0,0,0,0-.18l0,0h0c-.1-.2,0-.4,0-.6s-.1-.5-.1-.7a3.86,3.86,0,0,0-.3-.8c0-.1-.1-.1-.1-.2s-.1-.1-.1-.2h0c0-.1-.1-.1-.1-.2v-.1c-.1-.3-.3-.6-.4-.9.4-.2.2-.4.2-.7,0-.1,0-.1-.1-.2a.37.37,0,0,1-.1-.3c0-.2-.1-.3-.1-.4-.1-.3,0-.5.3-.7s.4-.1.6-.1a.52.52,0,0,1,.4.2c.1.1.1.1.2.1s.3.2.4.3h.2c.4-.3.2-.6-.1-.9Z"></path><path class="st4" d="M89,13.2h-.9a5.77,5.77,0,0,0-1.1.1,1.66,1.66,0,0,1-.7.1h-.7c-.1,0-.1.1-.2,0s-.1-.1-.1-.2h0V13a.79.79,0,0,1,.1-.4c0-.1.1-.9.1-1.1v-.6a.37.37,0,0,1,.1-.3.74.74,0,0,0,.1-.5V10h0a2.44,2.44,0,0,1,.2-.7V9.2A.09.09,0,0,1,86,9.1h0l.1-.1a.09.09,0,0,1,.08-.1h0V8.4c-.1-.3-.3-.5-.6-.4-.1,0-.1,0-.2-.1l-.4.2c-.1,0-.1.1-.2.1a.74.74,0,0,0-.1.5,1.23,1.23,0,0,1-.1.6.87.87,0,0,0-.1.5v.1a4.07,4.07,0,0,1-.1,1.1c0,.2.1.3.1.4a3.78,3.78,0,0,1-.2,1,5.66,5.66,0,0,1-.1,1.3.27.27,0,0,1-.2.3h-.1c-.2,0-.3.1-.4.3s-.1.1-.2.1-.2,0-.2.1a.63.63,0,0,1-.1.4.09.09,0,0,0,.08.1h0a.09.09,0,0,1,.1.08v0l.1.1h0c.1.2.3.3.4.5h0a1.84,1.84,0,0,1,.4,1V17c.1.1,0,.3.1.4h0v.3a1.32,1.32,0,0,1,.2.7c0,.1.1.2.2.3a2.29,2.29,0,0,0,.5.3c.1.1.2.1.4,0,0-.2.1-.3.1-.5s-.1-.3-.1-.5-.1-.3-.1-.5a1.23,1.23,0,0,0-.1-.6c0-.1,0-.1-.1-.2h0v-.2a1.17,1.17,0,0,1,.1-1v-.1c0-.2-.2-.3.1-.4a4.22,4.22,0,0,0,.6-.2c.2-.1.3-.3.5-.3a.37.37,0,0,0,.3-.1c.2-.1.5-.2.7-.3s.5,0,.7-.2a6,6,0,0,1,.8-.3c.1,0,.1,0,.2-.1a.09.09,0,0,1,.08-.1h0A1.21,1.21,0,0,0,89,13.2Z"></path><path class="st4" d="M95.6,17.8c0-.1,0-.1-.1-.2C95.5,17.7,95.5,17.8,95.6,17.8Z"></path><path class="st4" d="M134.9,13.1c0-.1,0-.1-.1-.1s-.2,0-.2.1,0,.1-.1.2v.3c0,.1,0,.1.1.1h0l.1-.1v-.3h0A.22.22,0,0,0,134.9,13.1Z"></path><path class="st4" d="M134.5,14.2h0v-.4h-.2a.35.35,0,0,0-.1.2c.1.1.1.2.2.3l.1-.1C134.6,14.4,134.5,14.3,134.5,14.2Z"></path><path class="st4" d="M99.9,13.1v.1h.1l-.1-.1C100,13,100,13.1,99.9,13.1Z"></path><path class="st4" d="M100.4,11h0c-.1.1,0,.1,0,.1s.1,0,0-.1C100.5,11.1,100.5,11,100.4,11Z"></path><path class="st4" d="M101.2,10h0a.13.13,0,0,0,0,.18l0,0h0Z"></path><path class="st4" d="M99.8,11.8h0c-.1.1,0,.1,0,.1S99.9,12,99.8,11.8Z"></path><path class="st4" d="M99.4,13s-.1.1,0,.1S99.5,13.1,99.4,13Z"></path><path class="st4" d="M99.4,12.6h0c.1-.1,0-.1,0-.1Z"></path><path class="st4" d="M100.2,13h0C100.3,12.9,100.2,12.9,100.2,13Z"></path><path class="st4" d="M96.7,10.6h0c.1,0,.1-.1,0,0h0a.3.3,0,0,0,.1-.2h-.1Z"></path><path class="st4" d="M97.3,18.4c-.1-.2-.2-.3-.3-.5s-.2-.3-.3-.5a.22.22,0,0,0-.2-.2c-.1,0-.1,0-.2-.1h0c-.1-.1-.3-.2-.4-.3s-.1-.1-.1-.2V16c0-.2-.1-.4-.1-.6s0-.2-.1-.2V15h0c0-.3-.2-.5-.2-.8V12.6a.37.37,0,0,0,.1-.3h0v-.1c0-.1,0-.1.1-.2h0c0-.1.1-.1.1-.2a.09.09,0,0,1,.08-.1h0l.1-.1c.1-.1.1-.2.2-.4h0v-.1c0-.1.1-.1.1-.2v-.2h0a.09.09,0,0,0-.08-.1h0l-.1.1c0,.1,0,.1-.1.2a.09.09,0,0,0-.1.08v0l-.1.1c0,.1-.1.1-.1.2h0c0,.1-.1.1-.1.2v.1c0,.1-.1.1-.2.1s-.1,0-.2-.1v-.1a.09.09,0,0,1,.08-.1h0v-.1h0v-.1h0V11h0v-.2a1.23,1.23,0,0,1,.1-.6v-.1c-.1-.2-.1-.3-.2-.5a.75.75,0,0,0-.2-.3h0c-.1,0-.1-.1-.2-.1.2-.2,0-.2-.1-.3h-.2l-.1.1v.1a.63.63,0,0,0,.1.4c.1.1.1.2.1.4v2.3h0v1c-.1.3-.3.5-.3.8,0,.1,0,.2.1.2s.2.2.2.3h0c0,.3.2.6.2,1s.2.5.2.8a.37.37,0,0,0,.1.3c.1.2.1.5.3.7v.2c0,.1.1.1.1.2s.1.1.1.2V19c0,.2.2.4.2.6H96c0-.1.2-.1.2-.2h0c.1-.1.3-.1.4-.3s.2-.2.3-.2C97.3,18.8,97.4,18.6,97.3,18.4Z"></path><path class="st4" d="M99.8,11.8h0c-.1.1,0,.1,0,.1S99.9,12,99.8,11.8Z"></path><path class="st4" d="M99.4,13s-.1.1,0,.1S99.5,13.1,99.4,13Z"></path><path class="st4" d="M99.9,13.1v.1c0,.1.1.1.1,0l-.1-.1C100,13,100,13.1,99.9,13.1Z"></path><path class="st4" d="M99.4,12.6h0c.1-.1,0-.1,0-.1Z"></path><path class="st4" d="M101.2,10h0a.13.13,0,0,0,0,.18l0,0h0Z"></path><path class="st4" d="M100.2,13h0C100.3,12.9,100.2,12.9,100.2,13Z"></path><path class="st4" d="M100.4,11h0c-.1.1,0,.1,0,.1s.1,0,0-.1C100.5,11.1,100.5,11,100.4,11Z"></path><path class="st4" d="M50.4,15c0-.2-.1-.3-.2-.5,0,0-.1-.1,0-.1h0c-.1-.2-.3-.4-.4-.6v-.1a.22.22,0,0,1-.2-.2h0a2.62,2.62,0,0,1-.5-.6c-.1-.1-.2-.1-.2-.2h0l-.3-.3c-.1,0-.2-.1-.3-.2s-.3-.2-.4-.3a.37.37,0,0,0-.3-.1c-.1-.1-.2-.1-.3-.2h-.1a.35.35,0,0,1-.2-.1.76.76,0,0,0-.4-.2h0L46,11c-.2-.1-.3-.2-.5-.3a2.29,2.29,0,0,0-.5-.3c-.2-.1-.3-.2-.5-.3a.75.75,0,0,1-.3-.2c-.1-.1-.3-.2-.4-.3s-.4-.3-.5-.5h0c-.1-.1-.2-.2-.1-.4a.37.37,0,0,1,.3-.1.63.63,0,0,0,.4-.1c.1,0,.2-.1.3-.1a9.74,9.74,0,0,1,1.7.2,2.41,2.41,0,0,1,.8.2c.2.1.4.1.6.2h.1c.1,0,.1.1.2.1a.09.09,0,0,1,.1.08v0h.1a.52.52,0,0,0,.4.2c.1.1.3.1.4.2s.2.1.2.2h0l.1.1c.1.1.1.1.1.2a.09.09,0,0,0,.08.1h0c.1-.1.2-.1.3-.2h0c.1-.1.1-.2.2-.2s.1-.1,0-.2-.3-.4-.5-.6V8.9h0L49,8.8c-.1,0-.1-.1-.2-.1s-.3-.3-.5-.5l-.1-.1L48.1,8h0c-.1,0-.1-.1-.2-.1s-.1-.1-.2-.1h-.1c-.1-.1-.2-.1-.4-.1s-.2-.1-.3-.2h-.1c-.1,0-.2-.1-.3-.2s-.3,0-.4-.1-.1,0-.2,0h-.1c-.1-.3-.3-.2-.6-.2H45a.19.19,0,0,1-.27,0h-1l-.1.1h0c-.1,0-.1.1-.2.2a.37.37,0,0,1-.3.1.37.37,0,0,0-.3.1h0c-.1.1-.2.3-.3.3a.09.09,0,0,0-.1.08v0c0,.2-.1.4-.1.7a4.34,4.34,0,0,0,.3.7c.1.2.3.4.5.7.2.1.3.3.4.4s.4.3.5.5a2.29,2.29,0,0,0,.5.3.76.76,0,0,0,.4.2l.1.1h0l.1.1h0c.1.1.2.1.3.2s.1,0,.1.1a.09.09,0,0,0,.08.1h0c.3,0,.5.3.8.3.1,0,.3.2.4.2s.1.1.2.1l.6.3c.1.1.2.1.3.2h0c.1.1.3.2.4.3s.3.2.4.3l.6.6c.1.2.3.3.4.5a.09.09,0,0,1,.1.08V15a.35.35,0,0,1,.1.2h0c0,.1.1.2.2.3s0,.3-.1.2h0l-.3.6h0a2.83,2.83,0,0,1-.8.7c-.1,0-.1.1-.2.1h0c-.1.1-.2.1-.3.2s-.2.3-.4.3h-.1a.7.7,0,0,1-.5.2c-.2.2-.5.2-.7.4s-.4.1-.6.2a2.18,2.18,0,0,1-.8.1,2.15,2.15,0,0,1-.8,0,2.72,2.72,0,0,1-.9,0,1.23,1.23,0,0,0-.6-.1,4.38,4.38,0,0,1-.7-.4l-.6-.6a1.31,1.31,0,0,1-.3-.4v-.4c0-.2.1-.4-.1-.6a.19.19,0,0,1,0-.27h0c.1-.3.1-.7.2-1,0-.1.1-.2,0-.3s-.3-.3-.5-.1a.09.09,0,0,1-.08.1h0c-.1,0-.2.1-.3.1h-.1c-.1.2-.3.4-.3.6V16a.37.37,0,0,0,.1.3c0,.1.1.2.1.3l.1.1c0,.1,0,.1.1.2s.1.2.2.3a1.31,1.31,0,0,0,.3.4c.1.1.2.3.3.4a.78.78,0,0,0,.4.4l.6.6h.1c.2.2.4.4.6.4h0a7.52,7.52,0,0,0,1.5.2.37.37,0,0,0,.3-.1h.4a4,4,0,0,0,.5-.1c.3-.1.6-.1.9-.2a10,10,0,0,0,2.9-1.5l.3-.3a.09.09,0,0,1,.08-.1h0a.22.22,0,0,1,.2-.2V17a4.25,4.25,0,0,0,.5-.7.37.37,0,0,0,.1-.3A2.29,2.29,0,0,1,50.4,15Z"></path><path class="st4" d="M102.4,10a.09.09,0,0,0,.1-.08v0c0-.1.1-.1.2-.1h.2c.1,0,.3.1.3-.2,0-.1.1-.1.2-.2a.09.09,0,0,1,.08-.1h0c.1-.1.1-.2.3-.2s.1,0,.1-.1,0-.2.2-.3c0-.1.1-.1.1-.2a.1.1,0,0,1,.2,0v.9a16.2,16.2,0,0,1-.1,2.2c-.1.9,0,1.8-.1,2.7v.1a3.07,3.07,0,0,1,.1,1c0,.2.1.4.1.6s.1.4.1.6v.1h0V17a10.9,10.9,0,0,1,.2,1.8,4.63,4.63,0,0,0,.2,1.1c0,.1,0,.1.1.2h0a.22.22,0,0,0,.2.2l.1.1c0,.1,0,.2.1.2s.2,0,.3-.2h0a1.09,1.09,0,0,0,.1-.5v-.3c-.8-.8-.8-.9-.8-1.2h0v-.2a1.23,1.23,0,0,0-.1-.6c0-.1-.1-.1,0-.2v-.6l-.1.1a.09.09,0,0,1-.08.1h0c-.1,0-.1-.1,0-.1v-.1c.2-.1.2-.2.1-.3v-.1h0v-.1a1.23,1.23,0,0,1-.1-.6v-.1c0-.2-.1-.3-.1-.5v-.2c-.1-.1-.1-.2-.1-.4V13.3c-.1-.1-.1-.1-.1-.2a5.65,5.65,0,0,0,0-1.3v-.5c0-.5-.1-1.1-.1-1.6a5.29,5.29,0,0,1-.3-2.2.63.63,0,0,1,.1-.4c0-.1.1-.2.1-.3a.37.37,0,0,1,.1-.3V6.3h0V6c0-.1,0-.1-.1-.1a.35.35,0,0,0-.2.1.35.35,0,0,1-.1.2,3.36,3.36,0,0,0-.3.6c0,.1,0,.1-.1.2s-.1.1-.1.2a.27.27,0,0,1-.24.3h-.06l-.9.9-.4.4c-.1.2-.3.3-.4.5s-.1.2-.2.2a1.84,1.84,0,0,0-.5.7v.1c-.1.1-.2.2-.2.3v.1c-.1.1-.2.1-.3.2h0v.4c0,.2-.1.2-.2.2h0l-.1.1h0a2.17,2.17,0,0,1-.4.6,6,6,0,0,1-.4.7s-.1.1-.1,0h0c-.2.1-.3,0-.3-.1,0-.3-.1-.6-.1-.8a4.17,4.17,0,0,0-.3-1.1v-.1l-.3-.6a.09.09,0,0,0-.08-.1h0a.63.63,0,0,1-.1-.4h0a.13.13,0,0,0-.18,0l0,0h0a.09.09,0,0,0-.1.08v0h-.2a.09.09,0,0,0-.1.08v0h0c0,.1-.1.1-.1.2h0v.2c0,.1,0,.1.1.1s.1-.1.2-.1a.22.22,0,0,1,.2-.2c.1,0,.1.1.1.2v.1c0,.1,0,.1.1.2h0c0,.1.1.2.1.3a14.75,14.75,0,0,1,.2,2.2v.3h0v.4a.87.87,0,0,0,.1.5,1.23,1.23,0,0,1,.1.6c0,.2.1.4.1.7a.19.19,0,0,1,0,.27h0c0,.1-.1.1-.1.2a.37.37,0,0,1-.1.3,1.23,1.23,0,0,0-.1.6l.2.2c.2.1.2.4.3.5s.1.2.2.2.1.2.2.2.1.1.1.2l.1.1a1,1,0,0,0,.5.4.09.09,0,0,1,.1.08v0c.1.1.1.1.3.1s.1-.1.1-.2v-.1h0l-.1-.1c-.1-.1-.1-.1,0-.2V17.1a.87.87,0,0,1,.1-.5v-.1a.19.19,0,0,1,0-.27h0c0-.1.1-.1,0-.2a.85.85,0,0,1,0-.7c0-.1,0-.2.1-.2a.63.63,0,0,1,.1-.4.52.52,0,0,0,.2-.4c0-.1-.1-.3.1-.3s.1-.1.1-.2-.1-.2,0-.3h0l.1-.1a.35.35,0,0,1,.1-.2v-.3c0-.1-.1-.1-.2-.1s-.1,0-.1-.1v-.1a.37.37,0,0,1,.3-.1c.1,0,.1.1.2,0s0-.1-.1-.2h0c-.1,0-.1-.1-.1-.2s0-.2-.1-.2a.13.13,0,0,1,0-.18l0,0h0c.1-.1.1,0,.2,0a.09.09,0,0,0,.08.1h.22c0-.1.1-.1.2-.1h0c-.1,0-.1-.1-.1-.2s.1-.1.2,0l.1.1c0,.2.2.2.3.1h0v-.1q-.3-.15,0-.3c.1-.1.1-.1,0-.1l-.1-.1c0-.1,0-.2.1-.2s.2,0,.2.1h0c.1.1.1.1.2.1v-.2c0-.1.1-.1.1-.2h0c0-.1,0-.1-.1-.1s-.1,0-.1.1h-.1v-.1h0a.09.09,0,0,1,.08-.1h.12a.09.09,0,0,1,.08-.1h0a.35.35,0,0,0,.1-.2h0c-.2-.2-.3-.2-.3.1,0,.1,0,.2-.1.2s-.1-.1-.1-.2v-.1Zm-3,2.5h0c.1.1,0,.1,0,.1Zm0,.7c-.1,0,0-.1,0-.1S99.5,13,99.4,13.2Zm.4-1.2h0c-.1-.1-.1-.1,0-.1S99.9,11.9,99.8,12Zm.3,1.2c0,.1-.1.1,0,0l-.1-.1h.1Zm.3-2h0c-.1-.1,0-.1,0-.1S100.5,11.1,100.4,11.2Zm.8-1c-.1,0-.1-.1,0,0-.1-.1,0-.1,0-.2Z"></path><path class="st4" d="M116.2,14.1c.2-.1.3-.2.1-.4s-.2-.1-.3-.2h-.1c-.1-.1-.3-.1-.4-.2s-.1-.1-.2-.1a.37.37,0,0,0-.3-.1h-.2l-.1.1a1.69,1.69,0,0,0-.2.5v.1a.35.35,0,0,1-.1.2h0c-.1.1-.2.1-.3.2h-.6a.22.22,0,0,1-.2-.2,7.57,7.57,0,0,1-.8-.9h0c-.1-.1-.2-.3-.3-.4a1.64,1.64,0,0,1-.4-.7l-.1-.1c-.2,0-.2-.1-.2-.2s0-.2-.2-.2-.4-.1-.7-.1a.37.37,0,0,1-.3-.1h-.1a.09.09,0,0,1-.1-.08v0h0c-.1-.1-.2,0-.3.1s-.1.2-.2.3h0l-.1.1h0v.1c0,.1-.1.2-.1.3a.37.37,0,0,0-.1.3c0,.1-.1.2-.2.3a.79.79,0,0,1-.1.4c0,.1-.1.1-.1.2a.79.79,0,0,1-.1.4c0,.1-.1.1-.1.2a1.69,1.69,0,0,1-.2.5c-.1.2,0,.2-.1.2v.1c-.2.3-.1.6-.3.9v.2c0,.2-.1.3-.1.5s-.1.2-.1.4v.9h0a1.64,1.64,0,0,0,.4.7.09.09,0,0,0,.08.1h0a.09.09,0,0,1,.1.08v0h.1a.09.09,0,0,1,.1.08v0c.1,0,.1.1.2.1h.1c.1.1.2.1.3.2a.09.09,0,0,1,.1.08v0c.2.1.3,0,.4,0a1,1,0,0,0,.5-.2h.1a4.76,4.76,0,0,0,.9-1.1h0c0-.1,0-.1.1-.2a.09.09,0,0,1,.08-.1h0v-.2c0-.1.1-.1.2-.2v-.1c0-.2.2-.3.1-.5v-.2c.1-.3.1-.6.2-1s0-.8.1-1.2c0-.2.1-.2.3-.1h.1l.4.4c.1.1.3.1.3.3a.09.09,0,0,0,.08.1h0c.1,0,.1,0,.1.1a1.62,1.62,0,0,0,.9.3h.2c.2,0,.2.1.2.2a4,4,0,0,0-.1.5c0,.2-.1.2-.2.3a.09.09,0,0,1-.08.1h0c0,.1,0,.2-.1.2a.63.63,0,0,0-.1.4v.7c0,.2,0,.3.2.4h0a2.88,2.88,0,0,0,.7.5c.1,0,.2.1.3,0a.37.37,0,0,1,.3.1.45.45,0,0,0,.5,0,2.62,2.62,0,0,0,.6-.5h0c.1-.1.2-.3.3-.4v-.3h0a.63.63,0,0,1,.1-.4c0-.1.1-.1.1-.2v-.2c.1-.1.1-.2.2-.3h0c.1-.1.2-.2.2-.3v-.1a1,1,0,0,1,.4-.5h0v-.1a.09.09,0,0,1,.08-.1h0l.1-.1h0a.09.09,0,0,1,.08-.1h0a.09.09,0,0,1,.08-.1h0c0-.1.1-.2.2-.3a.09.09,0,0,1,.08-.1h0c.1-.1.1-.2.3-.3l.6-.6h0l.1-.1a3.47,3.47,0,0,1,1-.7l.1-.1a.3.3,0,0,1,.4,0h0a1.4,1.4,0,0,1,0,1.1v.5c0,.1,0,.1-.1.2s0,.1-.1.2v.5a.37.37,0,0,1-.1.3.63.63,0,0,0-.1.4v.6a4.83,4.83,0,0,0,.1,1.2,1.42,1.42,0,0,0,.2.6h0a1.21,1.21,0,0,0,.5.5c.1.1.2.1.3.2l.1.1a.09.09,0,0,1,.1.08v0h0c.1,0,.1.1.2.1a.76.76,0,0,1,.4.2h.1c.1-.1.1-.1.2,0s.1,0,.2,0l.1-.1c.1,0,.2-.1.3-.2h0a2.17,2.17,0,0,1,.6-.4c.1,0,.1-.2.2-.2h0c.2-.2.4-.3.5-.5l.3-.3a2.62,2.62,0,0,0,.5-.6c.1-.1.2-.2.3,0s.1.1.1.2.2.3.3.5l.1.1c.1,0,.2.1.3.2s.1.1.2.1.1.1.1,0a.37.37,0,0,1,.3-.1c0-.1.1-.1.2-.1a1,1,0,0,0,.7-.4.09.09,0,0,0,.1-.08v0h0l.5-.5h0a.1.1,0,0,1,.2,0v.7c0,.1,0,.1.1.2s0,.1.1.2a1.54,1.54,0,0,0,.7.9h0a3.18,3.18,0,0,0,1.4.2c.2,0,.3-.2.5-.3s.3-.3.5-.5l.1-.1h0v-.1c0-.1.1-.1.1-.2l.3-.6a.37.37,0,0,0,.1-.3c-.3-.3-.2-.5-.3-.7h0a.09.09,0,0,0-.08-.1h0c-.1,0-.1,0-.1.1a.22.22,0,0,1-.2.2h0a2.17,2.17,0,0,1-.4.6v.1h0c-.1.1-.1.2-.2.3s-.2.3-.3.4h0c0,.1-.1.1-.2.2a1.31,1.31,0,0,1-.4.3h-.1a.45.45,0,0,1-.5,0,.09.09,0,0,1-.1-.08v0h0l-.2-.2a1.69,1.69,0,0,1-.2-.5v-.1a4.07,4.07,0,0,1,.1-1.1v-.3a1.32,1.32,0,0,1,.2-.7v-.1h0v-.1h0c0-.2.1-.3.1-.5v-.1c0-.2.1-.3.1-.5V14h0v-.3a.37.37,0,0,1,.1-.3v-.1c0-.1.1-.1.1-.2v-.6c0-.1-.1-.1-.2,0a.37.37,0,0,1-.3-.1c0-.1-.1-.1-.2-.1s-.1-.1-.2-.1a.61.61,0,0,0-.8,0c-.2.2-.4.3-.6.5a5,5,0,0,0-.6.7,2.17,2.17,0,0,1-.4.6h0a2.17,2.17,0,0,1-.4.6,2.17,2.17,0,0,1-.4.6c-.1.1-.1.3-.3.4l-.1.1c0,.1-.1.1-.1.2s-.3.4-.4.5a.09.09,0,0,1-.08.1h0a.09.09,0,0,1-.08.1h0l-.3.3-.1.1c0,.1-.2.2-.2.2-.3.2-.5.5-.8.7a.09.09,0,0,1-.08.1h0a1.42,1.42,0,0,0-.6.2l-.6.3h0a.46.46,0,0,1-.6.1.51.51,0,0,1-.5-.4v-.1a1.94,1.94,0,0,1-.2-.7,3.74,3.74,0,0,0-.1-1A19.27,19.27,0,0,1,121,14v-.8c0-.1-.1-.3-.1-.4s0-.3-.2-.3l-.1-.1-.1-.1h-.2s-.5.1-.6.1-.1,0-.2.1l-.3.3h0c-.1.1-.2.2-.3.2-.3.3-.6.5-.9.8a.09.09,0,0,1-.08.1h0l-.3.3h0l-.1.1h0c0,.1-.1.1-.2.2l-.3.3h0a.09.09,0,0,1-.08.1h0l-.6.6h0l-.1.1h0a.09.09,0,0,1-.08.1h0l-.1.1-.1.1-.3.3c-.1,0-.1,0-.1-.1v-.5c0-.2.1-.3.1-.4h0v-.1a.37.37,0,0,1,.1-.3c0-.1.1-.1.1-.2s.1-.2.2-.3Zm-5.5.1h0c-.1.3-.1.5-.2.6s0,.2-.1.4v.2c0,.1,0,.2-.1.2a.35.35,0,0,0-.1.2c-.1.1,0,.2-.1.3h0a.37.37,0,0,0-.1.3v.1a.41.41,0,0,0-.2.4c0,.1-.1.1-.1.2s-.1.1-.2.2-.1.2-.2.3l-.4.4c-.1.1-.3,0-.3-.2a4.05,4.05,0,0,1,0-1.1,1.32,1.32,0,0,1,.2-.7v-.2a.63.63,0,0,0,.1-.4.76.76,0,0,1,.2-.4,2.17,2.17,0,0,1,.4-.6c.2-.2.3-.4.5-.6l.3-.6c0-.1.1-.1.2-.1a.22.22,0,0,1,.2.2,1.23,1.23,0,0,0,.1.6C110.8,14.1,110.8,14.2,110.7,14.2Zm18.8-1.1a.37.37,0,0,1-.1.3v.1c0,.3-.2.5-.3.8v.1c-.1.1-.1.3-.2.5V15c-.1.1-.1.2-.2.4s-.1.1-.1.2a.37.37,0,0,1-.1.3c-.1.1-.1.4-.3.5a.09.09,0,0,1-.08.1h0c-.2.1-.4.3-.6.3,0,.1-.1.1-.2.1a.09.09,0,0,0-.1.08v0c-.1,0-.2.1-.3,0a.19.19,0,0,1,0-.27h0c0-.1.1-.2.1-.3v-.1c0-.1,0-.2.1-.2.1-.2.2-.5.3-.7a.09.09,0,0,1,.08-.1h0a2.29,2.29,0,0,0,.3-.5l.3-.3a2.62,2.62,0,0,1,.5-.6l.2-.2a1,1,0,0,1,.5-.4c.1,0,.1-.1.2-.1a.13.13,0,0,1,.18,0l0,0h0C129.6,12.9,129.6,13,129.5,13.1Z"></path></svg>